<svg xmlns="http://www.w3.org/2000/svg">
  <symbol id="logo" fill="none" viewBox="0 0 26 30">
    <path
      fill="#58BEBF"
      fill-rule="evenodd"
      d="M15 15 25.599 4.385c-5.82-5.81-15.39-5.807-21.206.008-5.818 5.819-5.818 15.395 0 21.214 5.819 5.818 15.395 5.818 21.214 0L15 15Z"
      clip-rule="evenodd"
    />
  </symbol>
  <symbol id="mail" fill="none" viewBox="0 0 24 19">
    <path
      fill="#E8E8E8"
      d="M21.89 0H2.11c-.325 0-.63.08-.904.211L11.953 10.96l2.409-2.315L22.796.211A2.085 2.085 0 0 0 21.89 0Zm1.899 1.206-7.935 7.935 7.935 7.935c.131-.275.211-.58.211-.904V2.109c0-.324-.08-.628-.211-.903Zm-23.578 0A2.085 2.085 0 0 0 0 2.109v14.063c0 .324.08.628.211.903l7.935-7.934L.211 1.206Z"
    />
    <path
      fill="#E8E8E8"
      d="m14.86 10.135-2.41 2.315a.701.701 0 0 1-.994 0l-2.315-2.315-7.936 7.935c.275.131.58.211.904.211h19.782c.324 0 .628-.08.903-.211l-7.934-7.935Z"
    />
  </symbol>
  <symbol id="partner_1" fill="none" viewBox="0 0 217 42">
    <path
      fill="#D8D8D8"
      fill-rule="evenodd"
      d="M126.806 12.037c-.537.49-1.248.734-2.131.734-.883 0-1.593-.245-2.131-.734a2.37 2.37 0 0 1-.806-1.829c0-.749.268-1.368.806-1.858s1.248-.734 2.131-.734c.883 0 1.594.245 2.131.734.538.49.807 1.11.807 1.858 0 .73-.269 1.34-.807 1.829ZM63.59 27.027V30.8H52.1V10.438h4.924v16.59h6.566Zm14.07 2.981c-1.258.662-2.684.994-4.278.994-1.593 0-3.024-.332-4.29-.994a7.262 7.262 0 0 1-2.982-2.866c-.72-1.248-1.08-2.707-1.08-4.377s.36-3.13 1.08-4.378a7.262 7.262 0 0 1 2.981-2.865c1.267-.663 2.698-.994 4.291-.994 1.594 0 3.02.331 4.277.994a7.284 7.284 0 0 1 2.967 2.865c.72 1.248 1.08 2.707 1.08 4.378 0 1.67-.36 3.13-1.08 4.377a7.284 7.284 0 0 1-2.967 2.866Zm-4.278-3.298c-.94 0-1.732-.336-2.376-1.008-.643-.672-.964-1.65-.964-2.937s.321-2.27.964-2.952a3.14 3.14 0 0 1 2.376-1.023c.941 0 1.728.341 2.362 1.023.634.681.95 1.665.95 2.952 0 1.286-.316 2.265-.95 2.937-.634.672-1.42 1.008-2.362 1.008Zm23.501 10.916c-1.19.71-2.669 1.065-4.435 1.065-2.42 0-4.354-.571-5.803-1.713-1.45-1.143-2.319-2.693-2.607-4.652h4.868a2.44 2.44 0 0 0 1.05 1.527c.548.365 1.263.547 2.146.547 1.018 0 1.839-.293 2.463-.878.624-.586.936-1.522.936-2.808V27.89a5.021 5.021 0 0 1-1.959 2.275c-.883.557-1.939.836-3.168.836-1.324 0-2.51-.332-3.556-.994-1.047-.662-1.872-1.618-2.477-2.866-.605-1.248-.907-2.707-.907-4.377 0-1.69.302-3.154.907-4.392.605-1.239 1.43-2.189 2.477-2.851 1.046-.663 2.232-.994 3.556-.994 1.23 0 2.285.278 3.168.835a5.021 5.021 0 0 1 1.959 2.275V14.73h4.896v15.984c0 1.497-.288 2.846-.864 4.046-.576 1.2-1.46 2.155-2.65 2.866Zm-4.925-10.944c-1.056 0-1.905-.346-2.548-1.037-.644-.691-.965-1.651-.965-2.88 0-1.229.321-2.189.965-2.88.643-.691 1.492-1.037 2.548-1.037 1.037 0 1.887.35 2.55 1.051.662.701.993 1.656.993 2.866 0 1.19-.331 2.14-.994 2.851-.662.71-1.512 1.066-2.549 1.066Zm23.631 3.326c-1.258.662-2.683.994-4.277.994-1.594 0-3.024-.332-4.291-.994a7.263 7.263 0 0 1-2.981-2.866c-.72-1.248-1.08-2.707-1.08-4.377s.36-3.13 1.08-4.378a7.263 7.263 0 0 1 2.981-2.865c1.267-.663 2.697-.994 4.291-.994 1.594 0 3.019.331 4.277.994a7.287 7.287 0 0 1 2.966 2.865c.72 1.248 1.08 2.707 1.08 4.378 0 1.67-.36 3.13-1.08 4.377a7.287 7.287 0 0 1-2.966 2.866Zm-4.277-3.298c-.941 0-1.733-.336-2.376-1.008-.643-.672-.965-1.65-.965-2.937s.322-2.27.965-2.952c.643-.682 1.435-1.023 2.376-1.023.941 0 1.728.341 2.362 1.023.633.681.95 1.665.95 2.952 0 1.286-.317 2.265-.95 2.937-.634.672-1.421 1.008-2.362 1.008Zm15.811-11.98h-4.925V30.8h4.925V14.73Zm8.323 13.161v10.57h-4.924V14.73h4.924v2.908a4.856 4.856 0 0 1 1.93-2.275c.883-.557 1.939-.835 3.168-.835 1.325 0 2.51.331 3.557.994 1.046.662 1.872 1.612 2.477 2.85.604 1.24.907 2.703.907 4.393 0 1.67-.303 3.13-.907 4.377-.605 1.248-1.431 2.204-2.477 2.866-1.047.662-2.232.994-3.557.994-1.229 0-2.285-.279-3.168-.836a4.856 4.856 0 0 1-1.93-2.275Zm3.514-1.21c-1.037 0-1.886-.355-2.549-1.065-.662-.71-.993-1.66-.993-2.851 0-1.21.331-2.165.993-2.866.663-.7 1.512-1.051 2.549-1.051 1.056 0 1.906.346 2.549 1.037s.965 1.651.965 2.88c0 1.229-.322 2.189-.965 2.88-.643.691-1.493 1.037-2.549 1.037Zm21.427 3.716c-.941.403-2.054.605-3.341.605-2.169 0-3.907-.48-5.212-1.44-1.306-.96-2.103-2.333-2.391-4.119h4.752c.077.691.37 1.22.879 1.584.508.365 1.166.547 1.972.547.557 0 .98-.13 1.268-.388.288-.26.432-.6.432-1.023 0-.557-.264-.955-.792-1.195-.528-.24-1.388-.494-2.578-.763-1.19-.25-2.17-.519-2.938-.807a4.85 4.85 0 0 1-1.987-1.396c-.557-.644-.835-1.522-.835-2.636 0-1.44.547-2.606 1.642-3.499 1.094-.893 2.64-1.339 4.636-1.339 2.036 0 3.663.509 4.882 1.526 1.219 1.018 1.982 2.362 2.29 4.032h-4.608c-.135-.652-.437-1.166-.908-1.54-.47-.375-1.06-.562-1.771-.562-.557 0-.979.12-1.267.36-.288.24-.432.58-.432 1.022 0 .5.264.874.792 1.124.528.25 1.358.499 2.491.748 1.229.288 2.237.581 3.024.879a4.99 4.99 0 0 1 2.045 1.454c.576.672.864 1.575.864 2.707 0 .922-.25 1.738-.749 2.448s-1.219 1.268-2.16 1.67Zm11.434.576c1.209 0 2.27-.279 3.182-.835a5.334 5.334 0 0 0 2.059-2.247V30.8h4.954V14.73h-4.954v8.524c0 1.172-.288 2.074-.864 2.708-.576.633-1.363.95-2.361.95-.96 0-1.723-.302-2.29-.907-.566-.605-.849-1.455-.849-2.549V14.73h-4.896v9.33c0 2.151.542 3.84 1.627 5.07 1.085 1.228 2.549 1.843 4.392 1.843Zm18.518-8.698V30.8h-4.925V14.73h4.925v2.736a4.802 4.802 0 0 1 1.944-2.132c.874-.518 1.896-.777 3.067-.777 1.229 0 2.314.283 3.255.85.941.566 1.651 1.377 2.131 2.433a6.437 6.437 0 0 1 2.29-2.39 6.017 6.017 0 0 1 3.211-.893c1.977 0 3.533.61 4.665 1.829 1.133 1.219 1.7 2.913 1.7 5.083V30.8h-4.896v-8.755c0-1.018-.274-1.81-.821-2.376-.547-.567-1.291-.85-2.232-.85-.979 0-1.752.303-2.319.907-.566.605-.849 1.455-.849 2.55V30.8h-4.925v-8.755c0-1.018-.269-1.81-.806-2.376-.538-.567-1.277-.85-2.218-.85-.979 0-1.757.298-2.333.893-.576.595-.864 1.45-.864 2.563Z"
      clip-rule="evenodd"
    />
    <circle cx="214.4" cy="12.8" r="2.4" fill="#fff" />
    <path
      fill="#D8D8D8"
      fill-rule="evenodd"
      d="M27.2 28c7.511 0 13.6-6.268 13.6-14S34.711 0 27.2 0c-7.381 0-13.389 6.053-13.595 13.6H13.6C6.089 13.6 0 19.868 0 27.6s6.089 14 13.6 14c7.381 0 13.389-6.053 13.595-13.6h.005ZM13.6 14c0 7.73 6.086 13.997 13.595 14 .003-.133.005-.266.005-.4 0-7.73-6.086-13.997-13.595-14a14.77 14.77 0 0 0-.005.4Z"
      clip-rule="evenodd"
    />
  </symbol>
  <symbol id="partner_2" fill="none" viewBox="0 0 190 35">
    <path
      fill="#D8D8D8"
      fill-rule="evenodd"
      d="M113.171 5.544v4.09h-4.694v-4.09h4.694ZM53.296 23.342V27H39.645V6.494h4.493v16.848h9.158Zm13.306 2.967c-1.152.614-2.496.921-4.032.921-1.575 0-2.938-.307-4.09-.921a6.408 6.408 0 0 1-2.664-2.635c-.624-1.143-.936-2.492-.936-4.047 0-1.555.312-2.899.936-4.032a6.522 6.522 0 0 1 2.664-2.635c1.152-.624 2.515-.936 4.09-.936 1.536 0 2.88.312 4.032.936a6.522 6.522 0 0 1 2.664 2.635c.624 1.133.936 2.477.936 4.032 0 1.555-.312 2.904-.936 4.047a6.408 6.408 0 0 1-2.664 2.635Zm-4.032-2.39c-1.095 0-1.93-.351-2.506-1.052-.576-.7-.864-1.78-.864-3.24 0-1.44.293-2.51.878-3.211.586-.7 1.416-1.051 2.492-1.051 1.056 0 1.872.35 2.448 1.051.576.7.864 1.771.864 3.211 0 1.46-.288 2.54-.864 3.24-.576.701-1.392 1.051-2.448 1.051Zm23.198 7.718c-1.334 1.21-3.298 1.814-5.89 1.814-2.304 0-4.32-.451-6.048-1.353l.663-3.226c.864.442 1.737.768 2.62.98a11.24 11.24 0 0 0 2.621.316c1.248 0 2.18-.288 2.794-.864l.127-.128c.53-.576.795-1.416.795-2.522l-.001-2.552-.019.03a5.42 5.42 0 0 1-.7.852 5.59 5.59 0 0 1-1.743 1.166 5.445 5.445 0 0 1-2.203.447c-1.267 0-2.39-.303-3.37-.907-.979-.605-1.747-1.455-2.304-2.55-.556-1.094-.835-2.37-.835-3.83 0-1.459.279-2.73.835-3.816.557-1.084 1.325-1.934 2.304-2.548.98-.615 2.103-.922 3.37-.922 1.19 0 2.242.293 3.154.878l.221.15c.504.36.908.784 1.212 1.271l.078.134v-2.059h4.32v13.91c0 2.343-.667 4.12-2.001 5.329Zm-5.717-8.352c-1.056 0-1.896-.355-2.52-1.066-.624-.71-.936-1.68-.936-2.909 0-1.228.307-2.193.922-2.894.614-.7 1.459-1.051 2.534-1.051 1.075 0 1.91.355 2.506 1.065.595.71.893 1.67.893 2.88 0 1.248-.303 2.223-.908 2.924-.604.7-1.435 1.05-2.49 1.05Zm22.205 3.024c-1.152.614-2.496.921-4.032.921-1.574 0-2.938-.307-4.09-.921a6.408 6.408 0 0 1-2.664-2.635c-.624-1.143-.936-2.492-.936-4.047 0-1.555.312-2.899.936-4.032a6.522 6.522 0 0 1 2.664-2.635c1.152-.624 2.516-.936 4.09-.936 1.536 0 2.88.312 4.032.936a6.522 6.522 0 0 1 2.664 2.635c.624 1.133.936 2.477.936 4.032 0 1.555-.312 2.904-.936 4.047a6.408 6.408 0 0 1-2.664 2.635Zm-4.032-2.39c-1.094 0-1.93-.351-2.506-1.052-.576-.7-.864-1.78-.864-3.24 0-1.44.293-2.51.879-3.211.585-.7 1.416-1.051 2.491-1.051 1.056 0 1.872.35 2.448 1.051.576.7.864 1.771.864 3.211 0 1.46-.288 2.54-.864 3.24-.576.701-1.392 1.051-2.448 1.051ZM112.998 27V12.398h-4.348V27h4.348Zm7.891-2.12.001 8.34h-4.349V16.575c0-.69-.015-1.387-.043-2.088-.029-.7-.092-1.396-.188-2.088h4.09l.276 2.463.046-.113c.337-.76.878-1.38 1.622-1.86.893-.576 1.934-.864 3.125-.864 1.267 0 2.385.322 3.355.965.97.643 1.733 1.545 2.29 2.707.556 1.162.835 2.5.835 4.018 0 1.516-.279 2.841-.835 3.974-.557 1.133-1.32 2.006-2.29 2.62-.97.615-2.088.922-3.355.922-1.191 0-2.232-.278-3.125-.835l-.217-.144a4.06 4.06 0 0 1-1.178-1.264l-.06-.107Zm3.341-.962c-1.094 0-1.929-.364-2.505-1.094-.576-.73-.864-1.786-.864-3.168 0-1.382.288-2.443.864-3.182.576-.74 1.411-1.11 2.505-1.11 1.056 0 1.877.385 2.463 1.153.585.768.878 1.833.878 3.197 0 1.363-.288 2.404-.864 3.124-.576.72-1.401 1.08-2.477 1.08Zm20.693 2.103c-1.104.806-2.625 1.21-4.565 1.21-2.784 0-4.982-.596-6.595-1.786l1.181-3.024a8.869 8.869 0 0 0 2.578 1.281c.95.298 1.905.447 2.865.447.749 0 1.325-.12 1.728-.36s.605-.571.605-.994a.979.979 0 0 0-.432-.85c-.288-.201-.797-.388-1.526-.561l-2.391-.576c-1.421-.288-2.462-.768-3.125-1.44-.662-.672-.993-1.565-.993-2.678 0-.903.264-1.704.792-2.405.528-.701 1.262-1.253 2.203-1.656.941-.403 2.035-.605 3.283-.605a9.85 9.85 0 0 1 3.053.475 9.722 9.722 0 0 1 2.678 1.34l-1.209 2.908a9.449 9.449 0 0 0-2.29-1.18 6.9 6.9 0 0 0-2.261-.404c-.71 0-1.267.125-1.67.375s-.605.595-.605 1.036c0 .327.12.586.36.778.24.192.667.365 1.282.518l2.448.548c1.497.345 2.582.864 3.254 1.555.672.691 1.008 1.613 1.008 2.765 0 1.382-.552 2.476-1.656 3.283Zm9.691 1.21c1.095 0 2.05-.265 2.866-.793a4.646 4.646 0 0 0 1.468-1.54l.015-.027V27h4.234V12.398h-4.378v8.064c0 1.018-.278 1.834-.835 2.448-.557.615-1.277.922-2.16.922-.787 0-1.368-.216-1.742-.648-.375-.432-.562-1.1-.562-2.002v-8.784h-4.349v8.698c0 2.054.451 3.59 1.354 4.608.902 1.018 2.265 1.526 4.089 1.526Zm16.445-8.266V27h-4.349V16.574c0-.69-.014-1.387-.043-2.088-.029-.7-.091-1.396-.187-2.088h4.09l.245 2.215.133-.232a4.76 4.76 0 0 1 1.479-1.536c.835-.547 1.839-.821 3.01-.821 1.325 0 2.376.34 3.153 1.022l.163.152c.37.366.674.82.912 1.36l.08.197.096-.164a5.43 5.43 0 0 1 1.615-1.645c.922-.615 1.968-.922 3.139-.922 1.671 0 2.909.509 3.715 1.526.807 1.018 1.21 2.554 1.21 4.608V27h-4.349v-8.698c0-.998-.163-1.728-.489-2.188-.327-.461-.864-.692-1.613-.692-.864 0-1.546.312-2.045.936-.499.624-.749 1.493-.749 2.607V27h-4.349v-8.698c0-.998-.163-1.728-.489-2.188-.327-.461-.855-.692-1.584-.692-.883 0-1.57.312-2.059.936-.49.624-.735 1.493-.735 2.607Z"
      clip-rule="evenodd"
    />
    <path
      fill="#D8D8D8"
      d="M0 .4v2.4h28V.4H0Zm0 4.8v2.4h28V5.2H0ZM0 10v2.4h28V10H0Zm0 4.8v2.4h28v-2.4H0Zm0 4.8V22h28v-2.4H0Zm0 4.8v2.4h28v-2.4H0Zm0 4.8v2.4h28v-2.4H0Z"
    />
  </symbol>

  <symbol id="partner_3" fill="none" viewBox="0 0 230 42">
    <path
      fill="#D8D8D8"
      fill-rule="evenodd"
      d="M131.869 13.862c.998 0 1.805-.283 2.419-.85.614-.566.922-1.28.922-2.145 0-.825-.308-1.502-.922-2.03-.614-.528-1.421-.792-2.419-.792-.999 0-1.805.278-2.419.835a2.684 2.684 0 0 0-.922 2.074c0 .825.307 1.516.922 2.073.614.557 1.42.835 2.419.835ZM68.538 31.2v-4.522h-9.62V11.04h-5.702V31.2h15.322Zm9.763.26c1.69 0 3.206-.346 4.55-1.038 1.344-.69 2.39-1.65 3.14-2.88.748-1.228 1.123-2.62 1.123-4.176 0-1.555-.375-2.942-1.124-4.161-.748-1.22-1.795-2.17-3.139-2.851-1.344-.682-2.86-1.023-4.55-1.023s-3.202.341-4.536 1.023c-1.335.681-2.381 1.636-3.14 2.865-.758 1.229-1.137 2.611-1.137 4.147 0 1.556.38 2.948 1.138 4.176.758 1.23 1.81 2.19 3.153 2.88 1.344.692 2.851 1.037 4.522 1.037Zm-2.362-5.343c.615.662 1.402.993 2.362.993.96 0 1.747-.33 2.361-.993.615-.663.922-1.58.922-2.75 0-1.153-.307-2.055-.922-2.708-.614-.653-1.401-.979-2.361-.979-.96 0-1.747.326-2.362.98-.614.652-.921 1.554-.921 2.706 0 1.172.307 2.088.921 2.75Zm21.341 10.93c2.957 0 5.222-.725 6.797-2.175 1.574-1.45 2.361-3.624 2.361-6.523V15.59h-5.212v1.901c-1.037-1.44-2.67-2.16-4.896-2.16-1.383 0-2.66.312-3.83.936a7.127 7.127 0 0 0-2.794 2.65c-.692 1.142-1.037 2.453-1.037 3.931 0 1.498.345 2.818 1.037 3.96a7.127 7.127 0 0 0 2.793 2.65c1.171.624 2.448.936 3.83.936 2.036 0 3.581-.615 4.637-1.844v.519c0 1.248-.336 2.189-1.008 2.822-.672.634-1.728.95-3.168.95-.94 0-1.896-.148-2.865-.446-.97-.297-1.771-.705-2.405-1.224l-1.987 3.83c.94.673 2.083 1.181 3.427 1.527 1.344.346 2.784.518 4.32.518Zm-2.102-11.895c.652.595 1.468.893 2.448.893.979 0 1.79-.298 2.433-.893.643-.595.965-1.363.965-2.304 0-.94-.317-1.704-.95-2.29-.634-.585-1.45-.878-2.448-.878-.999 0-1.82.293-2.463.878-.643.586-.965 1.35-.965 2.29s.327 1.709.98 2.304Zm22.608 6.307c1.689 0 3.206-.345 4.55-1.037 1.344-.69 2.39-1.65 3.139-2.88.749-1.228 1.123-2.62 1.123-4.176 0-1.555-.374-2.942-1.123-4.161-.749-1.22-1.795-2.17-3.139-2.851-1.344-.682-2.861-1.023-4.55-1.023-1.69 0-3.202.341-4.536 1.023-1.335.681-2.381 1.636-3.14 2.865-.758 1.229-1.137 2.611-1.137 4.147 0 1.556.379 2.948 1.137 4.176.759 1.23 1.81 2.19 3.154 2.88 1.344.692 2.851 1.037 4.522 1.037Zm-2.362-5.342c.614.662 1.402.993 2.362.993.96 0 1.747-.33 2.361-.993.615-.663.922-1.58.922-2.75 0-1.153-.307-2.055-.922-2.708-.614-.653-1.401-.979-2.361-.979-.96 0-1.748.326-2.362.98-.614.652-.922 1.554-.922 2.706 0 1.172.308 2.088.922 2.75Zm19.181-10.527V31.2h-5.472V15.59h5.472Zm9.014 21.197v-6.97c1.075 1.095 2.525 1.642 4.349 1.642 1.421 0 2.712-.331 3.874-.993 1.161-.663 2.083-1.604 2.764-2.823.682-1.219 1.023-2.635 1.023-4.248 0-1.613-.341-3.029-1.023-4.248-.681-1.219-1.603-2.16-2.764-2.822-1.162-.663-2.453-.994-3.874-.994-2.054 0-3.59.605-4.608 1.815V15.59h-5.213v21.197h5.472Zm.835-10.67c.615.662 1.402.993 2.362.993.96 0 1.747-.33 2.362-.993.614-.663.921-1.57.921-2.722s-.307-2.059-.921-2.721c-.615-.663-1.402-.994-2.362-.994-.96 0-1.747.331-2.362.994-.614.662-.921 1.57-.921 2.721 0 1.152.307 2.06.921 2.722Zm19.383 5.342c1.632 0 3.029-.22 4.19-.662 1.162-.442 2.04-1.051 2.635-1.829a4.22 4.22 0 0 0 .893-2.635c0-1.19-.312-2.117-.936-2.78a4.884 4.884 0 0 0-2.203-1.367c-.845-.25-1.91-.47-3.197-.663-1.017-.153-1.747-.302-2.189-.446-.441-.144-.662-.399-.662-.763 0-.327.202-.59.605-.792.403-.202 1.037-.303 1.901-.303 1.612 0 3.11.384 4.492 1.152l1.642-3.715c-.749-.422-1.68-.749-2.794-.98a16.577 16.577 0 0 0-3.369-.345c-1.594 0-2.962.226-4.104.677-1.143.451-2.011 1.066-2.607 1.843a4.266 4.266 0 0 0-.892 2.664c0 1.21.316 2.15.95 2.823a4.912 4.912 0 0 0 2.261 1.382c.873.25 1.934.451 3.182.605.979.134 1.695.273 2.146.417.451.144.677.39.677.735s-.188.61-.562.792c-.374.182-1.003.273-1.886.273-.96 0-1.93-.13-2.909-.388-.979-.26-1.824-.61-2.535-1.052l-1.641 3.744c.768.48 1.785.87 3.053 1.167a16.85 16.85 0 0 0 3.859.446Zm19.209-.49a6.75 6.75 0 0 1-2.563.49c-2.016 0-3.624-.595-4.824-1.785-1.2-1.19-1.8-2.976-1.8-5.357V15.59h5.472v7.834c0 1.171.221 2.026.663 2.563.441.538 1.084.807 1.929.807.864 0 1.57-.303 2.117-.908.547-.604.821-1.53.821-2.779V15.59h5.472V31.2h-5.213v-1.67a5.605 5.605 0 0 1-2.074 1.44Zm16.272.231v-7.747c0-1.171.25-2.045.749-2.621.499-.576 1.171-.864 2.016-.864 1.575 0 2.362 1.066 2.362 3.197V31.2h5.472v-7.747c0-1.171.249-2.045.749-2.621.499-.576 1.161-.864 1.987-.864.749 0 1.329.26 1.742.778.413.518.619 1.324.619 2.419V31.2h5.472v-8.928c0-2.323-.571-4.06-1.713-5.213-1.143-1.152-2.674-1.728-4.594-1.728-1.113 0-2.141.211-3.081.634a6.049 6.049 0 0 0-2.333 1.814 4.994 4.994 0 0 0-2.103-1.843c-.864-.403-1.843-.605-2.937-.605-.941 0-1.81.159-2.607.475a5.493 5.493 0 0 0-2.059 1.426V15.59h-5.213V31.2h5.472Zm29.276-.662c-.624.614-1.407.921-2.348.921-.921 0-1.699-.307-2.332-.921-.634-.615-.951-1.392-.951-2.333 0-.96.312-1.738.936-2.333.624-.595 1.407-.893 2.347-.893.96 0 1.748.298 2.362.893.614.595.922 1.373.922 2.333 0 .94-.312 1.718-.936 2.333ZM20.72 0l20.72 41.44H30.807c-14.154 0-23.36-14.895-17.03-27.555L20.72 0Z"
      clip-rule="evenodd"
    />
    <circle cx="5.88" cy="35.56" r="5.88" fill="#D8D8D8" />
  </symbol>
  <symbol id="partner_4" fill="none" viewBox="0 0 188 38">
    <path
      fill="#D8D8D8"
      fill-rule="evenodd"
      d="M115.218 12.96c-.331.14-.684.21-1.058.21-.365 0-.706-.07-1.022-.21a2.877 2.877 0 0 1-.843-.56 2.585 2.585 0 0 1-.576-.822 2.432 2.432 0 0 1-.209-1c0-.365.07-.706.209-1.023a2.7 2.7 0 0 1 1.419-1.397 2.585 2.585 0 0 1 1.022-.201 2.786 2.786 0 0 1 1.93.763 2.7 2.7 0 0 1 .59.835c.144.317.216.658.216 1.023 0 .355-.072.688-.216 1a2.643 2.643 0 0 1-.59.821 2.89 2.89 0 0 1-.872.562ZM61.571 29.6v-3.888h-7.776V8.619h-4.867V29.6h12.643Zm8.381.23c1.133 0 2.165-.18 3.096-.54a6.823 6.823 0 0 0 2.398-1.54c.667-.668 1.185-1.479 1.555-2.434.37-.955.554-2.028.554-3.218 0-1.181-.185-2.244-.554-3.19-.37-.946-.888-1.75-1.555-2.412a6.79 6.79 0 0 0-2.398-1.526c-.931-.356-1.963-.533-3.096-.533-1.142 0-2.182.177-3.118.533a6.924 6.924 0 0 0-2.419 1.526 6.776 6.776 0 0 0-1.57 2.412c-.369.946-.554 2.009-.554 3.19 0 1.19.185 2.263.555 3.218.37.955.892 1.766 1.57 2.434a6.957 6.957 0 0 0 2.418 1.54c.936.36 1.976.54 3.118.54Zm-2.318-4.399c.49.725 1.262 1.087 2.318 1.087 1.027 0 1.783-.362 2.268-1.087.485-.725.727-1.826.727-3.305 0-1.478-.242-2.577-.727-3.297-.485-.72-1.24-1.08-2.268-1.08-1.056 0-1.829.36-2.318 1.08-.49.72-.735 1.819-.735 3.297 0 1.479.245 2.58.735 3.305Zm17.64 9.31c1.19 0 2.246-.151 3.168-.454.921-.302 1.699-.703 2.332-1.202.634-.5 1.114-1.07 1.44-1.714.327-.643.49-1.3.49-1.973 0-.72-.132-1.312-.396-1.778a3.153 3.153 0 0 0-1.044-1.116 4.549 4.549 0 0 0-1.483-.605 13.32 13.32 0 0 0-1.7-.266 25.97 25.97 0 0 0-1.699-.101 20.362 20.362 0 0 1-1.483-.086c-.432-.044-.78-.12-1.044-.23-.264-.111-.396-.291-.396-.54 0-.25.163-.471.49-.663.413.057.854.086 1.325.086a8.1 8.1 0 0 0 2.376-.338 5.977 5.977 0 0 0 1.922-.965 4.59 4.59 0 0 0 1.282-1.52c.312-.594.468-1.266.468-2.015 0-.461-.068-.907-.202-1.34l1.094-.244c.336-.077.574-.187.713-.331.14-.144.209-.341.209-.59v-1.628h-4.507a7.244 7.244 0 0 0-1.563-.533 8.25 8.25 0 0 0-1.792-.187 8.4 8.4 0 0 0-2.434.338 6.14 6.14 0 0 0-1.951.965 4.572 4.572 0 0 0-1.303 1.527c-.317.6-.476 1.274-.476 2.023 0 .902.224 1.694.67 2.376.446.681 1.058 1.229 1.836 1.641-.346.164-.643.35-.893.562-.25.211-.456.432-.619.662a2.56 2.56 0 0 0-.36.713 2.334 2.334 0 0 0-.115.699c0 .528.1.964.302 1.31.202.346.47.629.807.85-.701.259-1.253.616-1.656 1.072-.404.456-.605 1.016-.605 1.678 0 .509.134.998.403 1.469.269.47.684.885 1.246 1.245.561.36 1.267.65 2.116.872.85.22 1.86.33 3.032.33Zm-.944-13.543c.264.1.579.15.944.15.739 0 1.274-.184 1.605-.554.331-.37.497-.847.497-1.432 0-.605-.166-1.08-.497-1.426-.331-.346-.866-.518-1.605-.518-.74 0-1.275.172-1.606.518-.331.346-.497.82-.497 1.426 0 .288.041.552.123.792.081.24.208.448.381.626.173.178.391.317.655.418Zm1.03 10.476c-.595 0-1.087-.036-1.476-.108-.389-.072-.698-.17-.929-.296-.23-.124-.391-.273-.482-.446a1.215 1.215 0 0 1-.137-.576c0-.298.089-.564.266-.8a2.93 2.93 0 0 1 .684-.64c.413.048.83.08 1.253.094.423.014.83.03 1.224.05.394.02.761.048 1.102.086.34.039.638.101.893.188.254.086.456.201.604.345.15.144.224.336.224.576 0 .221-.048.425-.144.612-.096.187-.267.348-.512.483-.244.134-.573.24-.986.316-.413.077-.94.116-1.584.116Zm19.454-2.384c-.931.36-1.963.54-3.096.54-1.142 0-2.181-.18-3.117-.54a6.957 6.957 0 0 1-2.42-1.54 6.835 6.835 0 0 1-1.569-2.434c-.37-.955-.554-2.028-.554-3.218 0-1.181.184-2.244.554-3.19.37-.946.893-1.75 1.57-2.412A6.924 6.924 0 0 1 98.6 14.97c.936-.356 1.975-.533 3.117-.533 1.133 0 2.165.177 3.096.533a6.783 6.783 0 0 1 2.398 1.526 6.87 6.87 0 0 1 1.555 2.412c.37.946.555 2.009.555 3.19 0 1.19-.185 2.263-.555 3.218-.369.955-.888 1.766-1.555 2.434a6.816 6.816 0 0 1-2.398 1.54Zm-3.096-2.772c-1.056 0-1.828-.362-2.318-1.087s-.734-1.826-.734-3.305c0-1.478.244-2.577.734-3.297.49-.72 1.262-1.08 2.318-1.08 1.028 0 1.784.36 2.268 1.08.485.72.728 1.819.728 3.297 0 1.479-.243 2.58-.728 3.305-.484.725-1.24 1.087-2.268 1.087Zm14.66 3.082V14.667h-4.464V29.6h4.464Zm8.064-.994v5.732h-4.464v-19.67h2.764c.279 0 .512.062.699.186.187.125.319.312.396.562l.331 1.094a7.52 7.52 0 0 1 .929-.864 5.906 5.906 0 0 1 2.289-1.109 6.099 6.099 0 0 1 1.433-.158c.778 0 1.498.173 2.16.519a4.973 4.973 0 0 1 1.714 1.497c.48.653.857 1.452 1.13 2.398.274.945.411 2.018.411 3.218 0 1.123-.156 2.16-.468 3.11-.312.951-.749 1.777-1.311 2.477a6.025 6.025 0 0 1-2.016 1.642c-.782.394-1.649.59-2.599.59-.778 0-1.43-.11-1.958-.33a5.317 5.317 0 0 1-1.44-.894Zm2.332-2.059c-.432 0-.844-.074-1.238-.223-.394-.149-.758-.41-1.094-.785v-6.336c.192-.23.384-.434.576-.612.192-.177.4-.324.626-.439.226-.115.47-.204.734-.266a3.83 3.83 0 0 1 .886-.094c.355 0 .677.072.965.216.288.144.535.382.741.713.207.331.368.765.483 1.303.115.538.173 1.2.173 1.987 0 .826-.072 1.527-.216 2.103-.144.576-.344 1.044-.598 1.404-.254.36-.554.621-.9.784a2.633 2.633 0 0 1-1.138.245Zm16.496 2.909c-.783.25-1.683.374-2.7.374a8.222 8.222 0 0 1-1.527-.144 10.558 10.558 0 0 1-1.476-.388 8.034 8.034 0 0 1-1.317-.584 5.688 5.688 0 0 1-1.037-.727l1.037-1.641a1.48 1.48 0 0 1 .446-.454c.173-.11.398-.166.677-.166.259 0 .492.058.698.173l.67.375c.24.134.521.259.842.374.322.115.727.173 1.217.173.346 0 .638-.036.878-.108.24-.072.432-.17.576-.295.144-.125.25-.264.317-.418.067-.154.101-.312.101-.475a.972.972 0 0 0-.302-.735 2.645 2.645 0 0 0-.792-.496 9.736 9.736 0 0 0-1.116-.39c-.418-.12-.843-.256-1.275-.41a10.193 10.193 0 0 1-1.274-.554 4.37 4.37 0 0 1-1.116-.82 3.794 3.794 0 0 1-.792-1.218c-.202-.48-.303-1.06-.303-1.742 0-.634.123-1.236.368-1.807a4.192 4.192 0 0 1 1.101-1.505c.49-.432 1.104-.775 1.843-1.03.74-.254 1.604-.381 2.592-.381.538 0 1.059.048 1.563.144.504.096.977.23 1.418.403a6.79 6.79 0 0 1 1.21.612c.365.235.686.492.965.77l-1.008 1.57a1.16 1.16 0 0 1-.368.389.96.96 0 0 1-.496.115c-.212 0-.423-.046-.634-.137l-.684-.295a7.482 7.482 0 0 0-.828-.295 3.697 3.697 0 0 0-1.051-.137c-.567 0-1.001.108-1.303.324a1.043 1.043 0 0 0-.454.9.9.9 0 0 0 .295.691c.197.183.459.343.785.483.326.139.696.27 1.109.396.413.124.835.264 1.267.417.432.154.854.334 1.267.54.413.207.783.461 1.109.763.326.303.588.67.785 1.102.197.432.295.95.295 1.555 0 .74-.134 1.421-.403 2.045a4.344 4.344 0 0 1-1.203 1.613c-.532.451-1.19.801-1.972 1.051Zm10.807.374c.48 0 .921-.045 1.325-.136.403-.092.78-.216 1.13-.375.35-.158.679-.35.986-.576.308-.225.605-.477.893-.756l.274.864c.173.5.537.749 1.094.749h2.765V14.667h-4.464V25.31a5.112 5.112 0 0 1-1.246.85 3.179 3.179 0 0 1-1.375.302c-.653 0-1.147-.202-1.483-.605-.336-.403-.504-.974-.504-1.714v-9.475h-4.464v9.475c0 .826.11 1.584.331 2.276.221.69.547 1.29.979 1.8a4.46 4.46 0 0 0 1.592 1.188c.628.283 1.351.424 2.167.424Zm16.387-11.03v10.8H166V14.667h2.765c.278 0 .511.063.698.187.187.125.319.312.396.562l.245.806a8.33 8.33 0 0 1 .778-.712 4.85 4.85 0 0 1 1.879-.936c.36-.092.756-.137 1.188-.137.902 0 1.649.233 2.239.698.59.466 1.039 1.087 1.346 1.865.25-.46.555-.854.915-1.18a4.92 4.92 0 0 1 1.166-.793c.418-.201.859-.35 1.325-.446a6.871 6.871 0 0 1 1.39-.144c.854 0 1.612.127 2.275.381a4.332 4.332 0 0 1 1.663 1.11c.446.484.785 1.08 1.015 1.785.231.705.346 1.505.346 2.397v9.49h-4.464v-9.49c0-1.545-.663-2.318-1.987-2.318-.605 0-1.107.2-1.505.598-.399.398-.598.972-.598 1.72v9.49h-4.464v-9.49c0-.854-.168-1.454-.504-1.8-.336-.345-.83-.518-1.483-.518a2.5 2.5 0 0 0-1.145.274c-.36.182-.698.427-1.015.734Z"
      clip-rule="evenodd"
    />
    <rect width="37.6" height="37.6" fill="#D8D8D8" rx="5.6" />
    <path
      fill="#fff"
      fill-rule="evenodd"
      d="m19.2 26.8-8.934 4.697 1.706-9.948-7.228-7.046 9.989-1.451L19.2 4l4.467 9.052 9.99 1.45-7.229 7.046 1.706 9.95L19.2 26.8Z"
      clip-rule="evenodd"
    />
  </symbol>
  <symbol id="building" fill="none" viewBox="0 0 18 24">
    <path
      fill="#58BEBF"
      fill-rule="evenodd"
      d="M5.602 23.796v-4.255h6.273v4.255h4.727V.878H.875v22.918h4.727Zm6.273-20.813h2.646v2.675h-2.646V2.983Zm2.646 3.89h-2.646v2.675h2.646V6.872Zm-2.646 3.889h2.646v2.674h-2.646v-2.674Zm2.646 3.888h-2.646v2.676h2.646V14.65ZM7.416 2.983h2.647v2.675H7.416V2.983Zm2.647 3.89H7.416v2.675h2.647V6.872Zm-2.647 3.889h2.647v2.674H7.416v-2.674Zm2.647 3.888H7.416v2.676h2.647V14.65ZM2.958 2.983h2.645v2.675H2.958V2.983Zm2.645 3.89H2.958v2.675h2.645V6.872Zm-2.645 3.889h2.645v2.674H2.958v-2.674Zm2.645 3.888H2.958v2.676h2.645V14.65Z"
      clip-rule="evenodd"
    />
  </symbol>
  <symbol id="play" viewBox="0 0 11 12">
    <path
      fill-rule="evenodd"
      d="M10.211 5.106a1 1 0 0 1 0 1.788l-8.764 4.382A1 1 0 0 1 0 10.382V1.618A1 1 0 0 1 1.447.724l8.764 4.382Z"
      clip-rule="evenodd"
    />
  </symbol>
  <symbol id="buyer" viewBox="0 0 70 70">
    <path
      fill-rule="evenodd"
      d="m27.345 24.552-3.039 2.754c2.153 2.683 5.068 4.903 8.643 5.613v4.161h4.102v-3.877c3.905-.267 7.867-3.213 8.531-7.128.927-5.315-3.734-8.496-8.531-9.971V8.048c2.072.215 4.406 1.876 6.092 3.32l2.544-3.217c-2.357-2.189-6.19-4.174-8.636-4.238V.007h-4.102v4.136c-3.223.69-5.874 3.252-6.305 6.393-.392 4.509 1.715 6.747 6.305 8.341v9.812c-3.595-.967-5.604-4.137-5.604-4.137Zm3.356-13.412c.179-1.2 1.005-2.18 2.248-2.701v5.989c-2.298-.752-2.416-2.159-2.248-3.288Zm6.35 17.937c2.56-.37 4.493-2.065 4.493-3.723 0-3.345-4.006-4.695-4.456-4.847a2.033 2.033 0 0 1-.037-.013v8.583Zm25.889 27.4V48.97l.907.545 2.11-3.517-14.482-8.69-14.483 8.69 2.11 3.517.908-.545v7.507H29.99V48.97l.908.545 2.11-3.517-14.483-8.69-14.482 8.69 2.11 3.517.908-.545v7.507H0v4.102h70v-4.102h-7.06Zm-42.364 0v-5.01h-4.101v5.01h-5.313v-9.968l7.363-4.418 7.364 4.418v9.968h-5.313Zm32.95-5.01v5.01h5.312v-9.968l-7.363-4.418-7.364 4.418v9.968h5.313v-5.01h4.101Z"
      clip-rule="evenodd"
    />
    <path d="M0 65.891h70v4.102H0V65.89Z" />
  </symbol>
  <symbol id="seller" viewBox="0 0 70 70">
    <path
      fill-rule="evenodd"
      d="M44.13 9.479H70v37.05H44.13V70H25.87V46.53H0V9.478h25.87v-4L35 0l9.13 5.478v4ZM35 4.783 29.972 7.8v1.679h10.056v-1.68L35 4.784Zm5.028 61.115H29.972V46.53h10.056v19.368ZM4.102 42.428h61.796V13.58H4.102v28.848Z"
      clip-rule="evenodd"
    />
    <path
      fill-rule="evenodd"
      d="m27.071 33.25-1.506 3.954-3.833-1.46 6.369-16.72 3.405-.004 6.314 16.732-3.837 1.449-1.491-3.95h-5.42Zm1.562-4.101h2.311l-1.15-3.048-1.16 3.048Z"
      clip-rule="evenodd"
    />
    <path
      d="M48.262 32.51h-4.789V18.844h-4.102v17.767h8.891V32.51Zm12.182 0h-5.71v-2.675h5.29v-4.101h-5.29v-2.675h5.71v-4.102h-9.811v17.654h9.811V32.51Zm-46.022-9.442c1.546-.686 3.87.982 5.114 2.102l2.544-3.217c-3.736-3.418-6.87-3.444-8.862-2.806-1.985.6-3.393 2.169-3.682 4.11-.278 1.864.523 3.656 2.089 4.677.271.177 2.143.977 4.389 1.82.835.307 1.687.859 1.576 1.482-.092.514-.808 1.274-2.054 1.274-2.014.117-3.507-1.525-4.624-2.874l-3.039 2.755c1.877 2.4 4.426 4.288 7.663 4.22 3.048 0 5.61-1.957 6.091-4.654.365-2.043-.545-4.706-4.194-6.052a72.429 72.429 0 0 1-3.658-1.476c-.37-.463-.23-1.003.647-1.361Z"
    />
  </symbol>
  <symbol id="performance" viewBox="0 0 40 30">
    <path
      fill-rule="evenodd"
      d="M33.717 27.732V6.829l2.98-2.957V7.66h2.285V0h-7.718v2.268h3.817l-3.956 3.927L25.797.907 13.002 13.608l-5.17-5.132-7.287 7.232 1.616 1.604 3.314-3.29v13.71H.096V30h39v-2.268h-5.379ZM27.624 5.928v21.804h-4.981V7.246l3.154-3.13 1.826 1.812ZM13.002 16.816l-1.433-1.422v12.338h4.98V13.294l-3.547 3.522Z"
      clip-rule="evenodd"
    />
  </symbol>
  <symbol id="entrepreneurship" viewBox="0 0 23 30">
    <path d="M15.75 0h6.75v7.5h-6.75V0ZM0 0h6.75v7.5H0V0Z" />
    <ellipse cx="11.625" cy="21" rx="4.125" ry="3.75" />
    <path
      fill-rule="evenodd"
      d="M2.25 21.375c0-4.763 4.03-8.625 9-8.625s9 3.862 9 8.625S16.22 30 11.25 30s-9-3.862-9-8.625Zm3.143 0c0 3.095 2.628 5.613 5.857 5.613 3.23 0 5.857-2.518 5.857-5.613 0-3.095-2.627-5.613-5.857-5.613-3.23 0-5.857 2.518-5.857 5.613Z"
      clip-rule="evenodd"
    />
    <path
      d="M7.348 11.39a9.917 9.917 0 0 1 2.402-.713L8.14 9H1.5l3.602 3.75c.689-.55 1.44-1.005 2.246-1.36Zm5.402-.713a9.907 9.907 0 0 1 2.402.713c.806.355 1.557.81 2.246 1.36L21 9h-6.64l-1.61 1.677Z"
    />
  </symbol>
  <symbol id="authenticity" viewBox="0 0 22 30">
    <path
      fill-rule="evenodd"
      d="M5.425 20.104a5.538 5.538 0 0 1 5.532-5.532 5.538 5.538 0 0 1 5.532 5.532 5.538 5.538 0 0 1-5.532 5.532 5.538 5.538 0 0 1-5.532-5.532Zm1.697.66 2.738 2.738 4.931-4.932-1.242-1.243-3.69 3.689-1.494-1.494-1.243 1.243Z"
      clip-rule="evenodd"
    />
    <path d="M16.577 3.423H14.38a3.423 3.423 0 0 0-6.846 0H5.337v4.388h11.24V3.423Z" />
    <path
      fill-rule="evenodd"
      d="M18.335 9.57V3.422h3.539V30H.04V3.423h3.54V9.57h14.755ZM3.667 20.103c0 4.02 3.27 7.29 7.29 7.29s7.29-3.27 7.29-7.29-3.27-7.29-7.29-7.29-7.29 3.27-7.29 7.29Z"
      clip-rule="evenodd"
    />
  </symbol>
  <symbol id="kindness" viewBox="0 0 37 30">
    <path
      d="M34.262 10.858h-7.384a3.972 3.972 0 0 0-3.971 3.972v11.193a3.972 3.972 0 0 0 3.971 3.972h8.286l1.4-16.634a2.31 2.31 0 0 0-2.302-2.503ZM18.935.005h-1.843l-.712 8.828a4.828 4.828 0 0 1-4.812 4.439h-1.384V27.58h4.691v.102a2.309 2.309 0 0 0 2.31 2.311h5.05a6.086 6.086 0 0 1-1.471-3.971V14.83a6.1 6.1 0 0 1 2.143-4.644v-6.21a3.972 3.972 0 0 0-3.972-3.97ZM0 11.837h8.04v17.178H0V11.838Z"
    />
  </symbol>
  <symbol id="circle" fill="none" viewBox="0 0 80 80">
    <path
      fill="#58BEBF"
      fill-rule="evenodd"
      d="m40 40-.03-40C18.038.016 0 18.068 0 40c0 21.943 18.057 40 40 40s40-18.057 40-40H40Z"
      clip-rule="evenodd"
    />
  </symbol>
  <symbol id="youtube" fill="none" viewBox="0 0 30 20">
    <mask id="a" width="30" height="20" x="0" y="0" maskUnits="userSpaceOnUse" style="mask-type: luminance">
      <path fill="#fff" fill-rule="evenodd" d="M.512 0h28.52v19.971H.512V0Z" clip-rule="evenodd" />
    </mask>
    <g mask="url(#a)">
      <path
        fill="red"
        fill-rule="evenodd"
        d="M28.444 3.125A3.574 3.574 0 0 0 25.931.611C23.698 0 14.77 0 14.77 0S5.842 0 3.61.588a3.647 3.647 0 0 0-2.514 2.537C.508 5.357.508 9.985.508 9.985s0 4.653.588 6.861A3.574 3.574 0 0 0 3.61 19.36c2.255.611 11.16.611 11.16.611s8.928 0 11.16-.587a3.574 3.574 0 0 0 2.515-2.514c.587-2.232.587-6.86.587-6.86s.023-4.653-.588-6.885Z"
        clip-rule="evenodd"
      />
    </g>
    <path fill="#fff" fill-rule="evenodd" d="m11.927 14.262 7.425-4.276-7.425-4.277v8.553Z" clip-rule="evenodd" />
  </symbol>
  <symbol id="twitter" fill="none" viewBox="0 0 25 20">
    <mask id="a" width="25" height="20" x="0" y="0" maskUnits="userSpaceOnUse" style="mask-type: luminance">
      <path fill="#fff" fill-rule="evenodd" d="M0 .043h24.46v19.919H0V.043Z" clip-rule="evenodd" />
    </mask>
    <g mask="url(#a)">
      <path
        fill="#1DA1F2"
        fill-rule="evenodd"
        d="M7.66 19.962c9.249 0 14.307-7.663 14.307-14.307 0-.218-.005-.434-.015-.65A10.226 10.226 0 0 0 24.461 2.4c-.901.4-1.871.67-2.888.792a5.046 5.046 0 0 0 2.211-2.78c-.971.576-2.047.994-3.193 1.22a5.029 5.029 0 0 0-8.569 4.586A14.276 14.276 0 0 1 1.658.964 5.017 5.017 0 0 0 .977 3.49c0 1.745.888 3.285 2.237 4.186a4.989 4.989 0 0 1-2.277-.629v.064a5.03 5.03 0 0 0 4.034 4.93 5.047 5.047 0 0 1-2.271.086 5.034 5.034 0 0 0 4.697 3.492 10.088 10.088 0 0 1-6.245 2.153c-.406 0-.806-.024-1.2-.07a14.235 14.235 0 0 0 7.708 2.259"
        clip-rule="evenodd"
      />
    </g>
  </symbol>
  <symbol id="linkedin" fill="none" viewBox="0 0 21 20">
    <mask id="a" width="6" height="20" x="0" y="0" maskUnits="userSpaceOnUse" style="mask-type: luminance">
      <path fill="#fff" fill-rule="evenodd" d="M.035.001H5.07v19.974H.035V.001Z" clip-rule="evenodd" />
    </mask>
    <g fill="#069" fill-rule="evenodd" clip-rule="evenodd" mask="url(#a)">
      <path
        d="M.297 19.975h4.48V6.497H.297v13.478ZM2.566 0C1.034 0 .032 1.006.032 2.329c0 1.293.972 2.328 2.475 2.328h.03c1.562 0 2.534-1.035 2.534-2.328C5.042 1.006 4.1 0 2.566 0Z"
      />
    </g>
    <path
      fill="#069"
      fill-rule="evenodd"
      d="M15.773 6.181c-2.377 0-3.442 1.306-4.038 2.225V6.497h-4.48v13.478h4.48V12.45c0-.403.03-.806.148-1.094.324-.804 1.06-1.638 2.298-1.638 1.621 0 2.27 1.236 2.27 3.048v7.21h4.479v-7.728c0-4.14-2.21-6.066-5.157-6.066Z"
      clip-rule="evenodd"
    />
  </symbol>
  <symbol id="facebook" fill="none" viewBox="0 0 20 20">
    <mask id="a" width="20" height="20" x="0" y="0" maskUnits="userSpaceOnUse" style="mask-type: luminance">
      <path fill="#fff" fill-rule="evenodd" d="M.002 0H20v20H.002V0Z" clip-rule="evenodd" />
    </mask>
    <g mask="url(#a)">
      <path
        fill="#4267B2"
        fill-rule="evenodd"
        d="M18.896 0H1.103C.493 0 0 .495 0 1.104v17.793C0 19.507.495 20 1.104 20h17.792c.61 0 1.104-.494 1.104-1.104V1.103C20 .493 19.506 0 18.896 0Z"
        clip-rule="evenodd"
      />
    </g>
    <path
      fill="#fff"
      fill-rule="evenodd"
      d="M13.809 20v-7.734h2.607l.39-3.028H13.81V7.31c0-.874.242-1.47 1.496-1.47h1.59v-2.7a21.366 21.366 0 0 0-2.33-.12c-2.304 0-3.881 1.407-3.881 3.99v2.228H8.086v3.028h2.598V20h3.125Z"
      clip-rule="evenodd"
    />
  </symbol>
</svg>
